<?xml version="1.0" standalone="no"?><!DOCTYPE svg PUBLIC "-//W3C//DTD SVG 1.1//EN" "http://www.w3.org/Graphics/SVG/1.1/DTD/svg11.dtd"><svg t="1525863978138" class="icon" style="" viewBox="0 0 1024 1024" version="1.1" xmlns="http://www.w3.org/2000/svg" p-id="3439" xmlns:xlink="http://www.w3.org/1999/xlink" width="200" height="200"><defs><style type="text/css"></style></defs><path d="M730.072691 847.74881c0 15.47239-12.712533 27.982308-27.78481 27.982308-15.656585 0-28.184923-12.509918-28.184923-27.982308 0-33.538861-13.481036-58.558697-32.144094-76.416414-29.746488-28.350698-70.828139-41.063231-95.245248-42.85811-20.236903-1.972934-38.493709-10.308787-51.993165-23.808242l-0.184195 0c-13.31526-13.70207-21.63167-31.559786-21.63167-52.184523l0-11.716856c0-10.517541 5.950526-19.836791 15.072277-24.582885 18.263969-12.3247 28.191062-37.307697 36.305881-57.365522 7.745405-18.663058 13.899568-34.744315 26.408463-45.840024l0 0 0.405229-0.805342 1.168616-0.971118c7.161097-6.559393 16.283872-18.650779 21.447475-31.559786 3.571339-10.327206 4.746094-20.838607-1.997494-28.184923l-0.584308-1.193175-0.38681 0c-6.17156-7.54279-8.348132-21.829168-5.360078-31.357172l0 0c5.360078-17.655102 9.521864-34.123168 11.298324-49.983391 1.77646-15.294334 2.175549-29.396517 0-42.4713l-0.184195 0c-2.379187-16.874319-15.294334-46.048779-32.949436-67.071581-9.724479-10.917654-20.058848-19.069311-28.590152-17.452487-9.909697 1.168616-19.449981 0-28.166503-3.996011-8.317433-4.155646-15.884782-10.327206-21.029966-18.828834-4.358261-6.17156-15.09172-10.143011-27.600615-12.3247-16.443507-2.968611-35.112706-2.581802-49.012274-2.581802-33.336246 0.583285-61.909002 7.54279-84.321454 22.621207-19.85521 13.31526-35.131125 33.753755-44.652989 62.326511l0 0 0 0c-7.751544 22.031782-11.92561 46.811142-11.508102 70.237691 0.38681 22.418592 3.959172 43.258223 11.907191 60.513212 1.173732 3.792373 2.181689 7.745405 2.181689 11.316743 0 7.346315-2.581802 14.286378-7.346315 19.85521l0 0.38681 0 0-0.786922 0.805342c-5.569856 7.142677-4.764514 17.451464-1.39579 27.379581l0.184195-0.786922c5.163603 13.868869 15.09172 26.390044 21.852704 32.931017l0.381693 0 2.385327 2.379187c11.519358 11.120268 17.469883 26.598798 24.595164 44.652989 8.734942 21.23258 19.068288 47.222511 39.305191 59.3272 8.716522 5.163603 13.880125 14.286378 13.880125 23.808242l0 0 0 10.529821c0 20.827351-8.532327 38.906102-21.829168 52.184523-13.481036 13.498432-31.743982 21.834284-51.593052 23.808242-24.803919 1.794879-65.87943 14.507412-95.245248 42.85811-19.043728 17.857716-32.543184 42.87653-32.543184 76.416414 0 15.47239-12.694113 27.982308-28.191062 27.982308-15.45397 0-27.761274-12.509918-27.761274-27.982308 0-50.807153 20.821211-89.110527 49.613978-116.889197 40.073694-38.303374 96.02603-55.553247 129.380696-58.540278 6.736425-0.38067 12.694113-3.368724 16.867156-7.345292 2.563382-2.360767 4.155646-5.569856 4.746094-8.735965-26.396183-21.61325-38.297234-51.593052-48.224328-76.576049-4.746094-11.907191-8.919137-22.031782-11.483542-25.222451l-0.627287-0.38067 0 0 0 0-0.38067-0.405229c-31.94148-28.953426-58.939367-83.135442-34.725896-125.21891-7.142677-21.416775-10.714016-44.438095-10.714016-68.246337-0.405229-29.979802 4.358261-61.134359 13.880125-88.900749 13.904685-41.10007 36.72339-70.662363 67.072605-90.499154 31.357172-21.429055 70.25611-31.357172 113.902166-32.346709 16.081257-0.399089 38.499849-0.399089 60.132542 3.374864 24.416086 4.757351 48.040133 14.285355 62.326511 34.319643 29.562293-2.968611 55.349609 13.70207 75.407434 37.510312 9.504468 10.916631 18.035772 23.808242 25.197892 37.307697 17.857716-3.755534 38.48143-2.581802 58.337663 0.989537l1.979074 0.405229c28.953426 6.15314 56.941873 19.431561 70.257134 35.124985 24.77936-1.007957 46.817282 12.896728 63.500243 32.733519 20.623713 24.225751 35.715433 59.744709 39.286772 80.564897 3.368724 24.010857-1.007957 43.061748-5.347798 61.503772-1.794879 8.538467-3.793396 16.892739-4.180206 24.231891 13.499455 21.22644 12.091386 45.059242 4.180206 65.87943-6.958482 18.060331-18.078751 32.937157-31.559786 46.633087-4.376681 4.376681-7.161097 14.285355-9.540284 19.652596-7.91118 19.836791-17.254989 43.264363-36.889165 61.300135 0.38681 1.997494 1.376347 3.996011 2.366907 5.169743 1.592264 1.77646 4.758374 2.784416 9.921977 3.571339 28.191062 2.379187 75.807546 16.868179 109.550045 49.411363 24.595164 23.630187 42.470277 56.56018 42.470277 99.621928 0 15.47239-12.712533 27.982308-27.78481 27.982308-15.675004 0-28.184923-12.509918-28.184923-27.78481 0-26.187429-10.733459-45.63741-25.406646-59.923788-23.02132-21.834284-55.951313-31.762401-75.401294-33.938973l0 0.178055c-21.632693-1.75804-37.307697-10.893094-48.63058-24.391527-11.298324-14.286378-16.443507-32.949436-16.443507-52.386114 0-10.327206 5.747911-19.449981 14.286378-24.208355 13.861706-9.325389 21.809725-28.977985 28.553313-45.040822l0 0c6.17156-16.081257 11.538801-29.783327 22.61609-39.889499l0.424672-0.202615 0.786922-0.805342c5.366218-4.948709 12.694113-14.488992 16.665565-24.601304 2.366907-6.737448 3.190669-13.493316-0.805342-18.035772-4.542456-5.169743-6.737448-10.936073-7.124258-17.679661-0.786922-17.046235 2.182712-32.156374 5.956665-47.235814 3.166109-13.074783 6.134721-27.361161 4.339842-40.270169-2.366907-13.481036-12.294001-36.526915-26.580379-52.988842-6.737448-8.133238-13.898545-13.68365-19.062148-13.093203-8.698103 1.186012-17.857716 0-25.768897-3.773953l-1.598404-0.786922c-7.142677-3.773953-13.111622-8.716522-17.469883-15.681144l-0.38681-0.400113c-3.971451-5.550413-19.84907-11.704576-38.512129-15.860223l-1.77646-0.424672c-9.509585-1.75804-19.252483-2.765997-27.182083-2.360767l1.192152 3.971451-0.38681 0c2.765997 19.049868 2.765997 38.099736 0.38681 57.931411-1.997494 15.47853-5.163603 32.144094-10.333346 49.214888 26.396183 42.274826 0.786922 96.062869-31.535227 127.001509l-0.989537 1.007957-0.405229 0.381693 0 0-0.805342 0.405229c-2.563382 2.581802-6.940063 13.074783-11.901051 25.603121-9.909697 24.601304-21.410636 53.757345-47.019897 75.002205 0.590448 4.155646 2.181689 7.53051 4.967128 9.909697l0 0.400113 0 0.405229c4.358261 3.571339 10.308787 6.559393 17.070794 6.940063 33.311687 2.987031 89.282443 20.236903 129.178081 58.540278C709.24534 758.639307 730.072691 796.941658 730.072691 847.74881L730.072691 847.74881z" p-id="3440" fill="#ffffff"></path></svg>